<mxfile host="app.diagrams.net" modified="2020-12-15T14:12:09.626Z" agent="5.0 (Windows NT 10.0; Win64; x64) AppleWebKit/537.36 (KHTML, like Gecko) Chrome/87.0.4280.88 Safari/537.36" etag="Bau7ulCuXPBAVZPqzqPj" version="14.0.1" type="github">
  <diagram id="HB0zmDzn8PzN4YRfiY-I" name="Page-1">
    <mxGraphModel dx="2048" dy="578" grid="1" gridSize="10" guides="1" tooltips="1" connect="1" arrows="1" fold="1" page="1" pageScale="1" pageWidth="827" pageHeight="1169" math="0" shadow="0">
      <root>
        <mxCell id="0" />
        <mxCell id="1" parent="0" />
        <mxCell id="Fa52Ynr5WljQ3uTiB2kK-2" value="Hjem" style="swimlane;fontStyle=1;align=center;verticalAlign=top;childLayout=stackLayout;horizontal=1;startSize=26;horizontalStack=0;resizeParent=1;resizeParentMax=0;resizeLast=0;collapsible=1;marginBottom=0;" vertex="1" parent="1">
          <mxGeometry x="334" y="390" width="160" height="138" as="geometry" />
        </mxCell>
        <mxCell id="Fa52Ynr5WljQ3uTiB2kK-3" value="Nedtelling" style="text;strokeColor=none;fillColor=none;align=left;verticalAlign=top;spacingLeft=4;spacingRight=4;overflow=hidden;rotatable=0;points=[[0,0.5],[1,0.5]];portConstraint=eastwest;" vertex="1" parent="Fa52Ynr5WljQ3uTiB2kK-2">
          <mxGeometry y="26" width="160" height="26" as="geometry" />
        </mxCell>
        <mxCell id="Fa52Ynr5WljQ3uTiB2kK-4" value="" style="line;strokeWidth=1;fillColor=none;align=left;verticalAlign=middle;spacingTop=-1;spacingLeft=3;spacingRight=3;rotatable=0;labelPosition=right;points=[];portConstraint=eastwest;" vertex="1" parent="Fa52Ynr5WljQ3uTiB2kK-2">
          <mxGeometry y="52" width="160" height="8" as="geometry" />
        </mxCell>
        <mxCell id="Fa52Ynr5WljQ3uTiB2kK-5" value="Siste nyheter" style="text;strokeColor=none;fillColor=none;align=left;verticalAlign=top;spacingLeft=4;spacingRight=4;overflow=hidden;rotatable=0;points=[[0,0.5],[1,0.5]];portConstraint=eastwest;" vertex="1" parent="Fa52Ynr5WljQ3uTiB2kK-2">
          <mxGeometry y="60" width="160" height="26" as="geometry" />
        </mxCell>
        <mxCell id="Fa52Ynr5WljQ3uTiB2kK-6" value="Facebook-feed" style="text;fillColor=none;align=left;verticalAlign=top;spacingLeft=4;spacingRight=4;overflow=hidden;rotatable=0;points=[[0,0.5],[1,0.5]];portConstraint=eastwest;strokeColor=#000000;" vertex="1" parent="Fa52Ynr5WljQ3uTiB2kK-2">
          <mxGeometry y="86" width="160" height="26" as="geometry" />
        </mxCell>
        <mxCell id="Fa52Ynr5WljQ3uTiB2kK-7" value="Meld deg p책-knapp" style="text;fillColor=none;align=left;verticalAlign=top;spacingLeft=4;spacingRight=4;overflow=hidden;rotatable=0;points=[[0,0.5],[1,0.5]];portConstraint=eastwest;strokeColor=#000000;" vertex="1" parent="Fa52Ynr5WljQ3uTiB2kK-2">
          <mxGeometry y="112" width="160" height="26" as="geometry" />
        </mxCell>
        <mxCell id="Fa52Ynr5WljQ3uTiB2kK-8" value="Resultater" style="swimlane;fontStyle=1;align=center;verticalAlign=top;childLayout=stackLayout;horizontal=1;startSize=26;horizontalStack=0;resizeParent=1;resizeParentMax=0;resizeLast=0;collapsible=1;marginBottom=0;strokeColor=#000000;" vertex="1" parent="1">
          <mxGeometry x="120" y="600" width="160" height="86" as="geometry" />
        </mxCell>
        <mxCell id="Fa52Ynr5WljQ3uTiB2kK-9" value="Link til EQ-timing?" style="text;strokeColor=none;fillColor=none;align=left;verticalAlign=top;spacingLeft=4;spacingRight=4;overflow=hidden;rotatable=0;points=[[0,0.5],[1,0.5]];portConstraint=eastwest;" vertex="1" parent="Fa52Ynr5WljQ3uTiB2kK-8">
          <mxGeometry y="26" width="160" height="26" as="geometry" />
        </mxCell>
        <mxCell id="Fa52Ynr5WljQ3uTiB2kK-10" value="" style="line;strokeWidth=1;fillColor=none;align=left;verticalAlign=middle;spacingTop=-1;spacingLeft=3;spacingRight=3;rotatable=0;labelPosition=right;points=[];portConstraint=eastwest;" vertex="1" parent="Fa52Ynr5WljQ3uTiB2kK-8">
          <mxGeometry y="52" width="160" height="8" as="geometry" />
        </mxCell>
        <mxCell id="Fa52Ynr5WljQ3uTiB2kK-11" value="Beste i hver klasse" style="text;strokeColor=none;fillColor=none;align=left;verticalAlign=top;spacingLeft=4;spacingRight=4;overflow=hidden;rotatable=0;points=[[0,0.5],[1,0.5]];portConstraint=eastwest;" vertex="1" parent="Fa52Ynr5WljQ3uTiB2kK-8">
          <mxGeometry y="60" width="160" height="26" as="geometry" />
        </mxCell>
        <mxCell id="Fa52Ynr5WljQ3uTiB2kK-67" style="edgeStyle=orthogonalEdgeStyle;rounded=0;orthogonalLoop=1;jettySize=auto;html=1;exitX=0.5;exitY=1;exitDx=0;exitDy=0;entryX=0.5;entryY=0;entryDx=0;entryDy=0;" edge="1" parent="1" source="Fa52Ynr5WljQ3uTiB2kK-12" target="Fa52Ynr5WljQ3uTiB2kK-46">
          <mxGeometry relative="1" as="geometry" />
        </mxCell>
        <mxCell id="Fa52Ynr5WljQ3uTiB2kK-68" style="edgeStyle=orthogonalEdgeStyle;rounded=0;orthogonalLoop=1;jettySize=auto;html=1;exitX=0.25;exitY=1;exitDx=0;exitDy=0;entryX=0.421;entryY=-0.04;entryDx=0;entryDy=0;entryPerimeter=0;" edge="1" parent="1" source="Fa52Ynr5WljQ3uTiB2kK-12" target="Fa52Ynr5WljQ3uTiB2kK-47">
          <mxGeometry relative="1" as="geometry" />
        </mxCell>
        <mxCell id="Fa52Ynr5WljQ3uTiB2kK-69" style="edgeStyle=orthogonalEdgeStyle;rounded=0;orthogonalLoop=1;jettySize=auto;html=1;exitX=0.75;exitY=1;exitDx=0;exitDy=0;entryX=0.5;entryY=0;entryDx=0;entryDy=0;" edge="1" parent="1" source="Fa52Ynr5WljQ3uTiB2kK-12" target="Fa52Ynr5WljQ3uTiB2kK-53">
          <mxGeometry relative="1" as="geometry" />
        </mxCell>
        <mxCell id="Fa52Ynr5WljQ3uTiB2kK-12" value="Informasjon" style="swimlane;fontStyle=1;align=center;verticalAlign=top;childLayout=stackLayout;horizontal=1;startSize=26;horizontalStack=0;resizeParent=1;resizeParentMax=0;resizeLast=0;collapsible=1;marginBottom=0;strokeColor=#000000;" vertex="1" parent="1">
          <mxGeometry x="330" y="600" width="160" height="34" as="geometry" />
        </mxCell>
        <mxCell id="Fa52Ynr5WljQ3uTiB2kK-16" value="P책melding" style="swimlane;fontStyle=1;align=center;verticalAlign=top;childLayout=stackLayout;horizontal=1;startSize=26;horizontalStack=0;resizeParent=1;resizeParentMax=0;resizeLast=0;collapsible=1;marginBottom=0;strokeColor=#000000;" vertex="1" parent="1">
          <mxGeometry x="540" y="600" width="160" height="86" as="geometry" />
        </mxCell>
        <mxCell id="Fa52Ynr5WljQ3uTiB2kK-17" value="Link til EQ-timing" style="text;strokeColor=none;fillColor=none;align=left;verticalAlign=top;spacingLeft=4;spacingRight=4;overflow=hidden;rotatable=0;points=[[0,0.5],[1,0.5]];portConstraint=eastwest;" vertex="1" parent="Fa52Ynr5WljQ3uTiB2kK-16">
          <mxGeometry y="26" width="160" height="26" as="geometry" />
        </mxCell>
        <mxCell id="Fa52Ynr5WljQ3uTiB2kK-18" value="" style="line;strokeWidth=1;fillColor=none;align=left;verticalAlign=middle;spacingTop=-1;spacingLeft=3;spacingRight=3;rotatable=0;labelPosition=right;points=[];portConstraint=eastwest;" vertex="1" parent="Fa52Ynr5WljQ3uTiB2kK-16">
          <mxGeometry y="52" width="160" height="8" as="geometry" />
        </mxCell>
        <mxCell id="Fa52Ynr5WljQ3uTiB2kK-19" value="P책meldte deltakere" style="text;strokeColor=none;fillColor=none;align=left;verticalAlign=top;spacingLeft=4;spacingRight=4;overflow=hidden;rotatable=0;points=[[0,0.5],[1,0.5]];portConstraint=eastwest;" vertex="1" parent="Fa52Ynr5WljQ3uTiB2kK-16">
          <mxGeometry y="60" width="160" height="26" as="geometry" />
        </mxCell>
        <mxCell id="Fa52Ynr5WljQ3uTiB2kK-20" value="Nyheter" style="swimlane;fontStyle=1;align=center;verticalAlign=top;childLayout=stackLayout;horizontal=1;startSize=26;horizontalStack=0;resizeParent=1;resizeParentMax=0;resizeLast=0;collapsible=1;marginBottom=0;strokeColor=#000000;" vertex="1" parent="1">
          <mxGeometry x="-80" y="600" width="160" height="78" as="geometry" />
        </mxCell>
        <mxCell id="Fa52Ynr5WljQ3uTiB2kK-72" value="Bildegalleri" style="text;strokeColor=none;fillColor=none;align=left;verticalAlign=top;spacingLeft=4;spacingRight=4;overflow=hidden;rotatable=0;points=[[0,0.5],[1,0.5]];portConstraint=eastwest;" vertex="1" parent="Fa52Ynr5WljQ3uTiB2kK-20">
          <mxGeometry y="26" width="160" height="26" as="geometry" />
        </mxCell>
        <mxCell id="Fa52Ynr5WljQ3uTiB2kK-21" value="Listevisning alle nyheter" style="text;fillColor=none;align=left;verticalAlign=top;spacingLeft=4;spacingRight=4;overflow=hidden;rotatable=0;points=[[0,0.5],[1,0.5]];portConstraint=eastwest;strokeColor=#000000;" vertex="1" parent="Fa52Ynr5WljQ3uTiB2kK-20">
          <mxGeometry y="52" width="160" height="26" as="geometry" />
        </mxCell>
        <mxCell id="Fa52Ynr5WljQ3uTiB2kK-36" value="Kontakt oss" style="swimlane;fontStyle=1;align=center;verticalAlign=top;childLayout=stackLayout;horizontal=1;startSize=26;horizontalStack=0;resizeParent=1;resizeParentMax=0;resizeLast=0;collapsible=1;marginBottom=0;strokeColor=#000000;" vertex="1" parent="1">
          <mxGeometry x="950" y="600" width="160" height="34" as="geometry" />
        </mxCell>
        <mxCell id="Fa52Ynr5WljQ3uTiB2kK-37" value="Frivillig" style="swimlane;fontStyle=1;align=center;verticalAlign=top;childLayout=stackLayout;horizontal=1;startSize=26;horizontalStack=0;resizeParent=1;resizeParentMax=0;resizeLast=0;collapsible=1;marginBottom=0;strokeColor=#000000;" vertex="1" parent="1">
          <mxGeometry x="750" y="600" width="160" height="112" as="geometry" />
        </mxCell>
        <mxCell id="Fa52Ynr5WljQ3uTiB2kK-38" value="P책melding" style="text;strokeColor=none;fillColor=none;align=left;verticalAlign=top;spacingLeft=4;spacingRight=4;overflow=hidden;rotatable=0;points=[[0,0.5],[1,0.5]];portConstraint=eastwest;" vertex="1" parent="Fa52Ynr5WljQ3uTiB2kK-37">
          <mxGeometry y="26" width="160" height="26" as="geometry" />
        </mxCell>
        <mxCell id="Fa52Ynr5WljQ3uTiB2kK-39" value="" style="line;strokeWidth=1;fillColor=none;align=left;verticalAlign=middle;spacingTop=-1;spacingLeft=3;spacingRight=3;rotatable=0;labelPosition=right;points=[];portConstraint=eastwest;" vertex="1" parent="Fa52Ynr5WljQ3uTiB2kK-37">
          <mxGeometry y="52" width="160" height="8" as="geometry" />
        </mxCell>
        <mxCell id="Fa52Ynr5WljQ3uTiB2kK-40" value="Informasjon" style="text;strokeColor=none;fillColor=none;align=left;verticalAlign=top;spacingLeft=4;spacingRight=4;overflow=hidden;rotatable=0;points=[[0,0.5],[1,0.5]];portConstraint=eastwest;" vertex="1" parent="Fa52Ynr5WljQ3uTiB2kK-37">
          <mxGeometry y="60" width="160" height="26" as="geometry" />
        </mxCell>
        <mxCell id="Fa52Ynr5WljQ3uTiB2kK-41" value="Nyheter" style="text;fillColor=none;align=left;verticalAlign=top;spacingLeft=4;spacingRight=4;overflow=hidden;rotatable=0;points=[[0,0.5],[1,0.5]];portConstraint=eastwest;strokeColor=#000000;" vertex="1" parent="Fa52Ynr5WljQ3uTiB2kK-37">
          <mxGeometry y="86" width="160" height="26" as="geometry" />
        </mxCell>
        <mxCell id="Fa52Ynr5WljQ3uTiB2kK-46" value="L첩p og l첩yper" style="swimlane;fontStyle=1;align=center;verticalAlign=top;childLayout=stackLayout;horizontal=1;startSize=26;horizontalStack=0;resizeParent=1;resizeParentMax=0;resizeLast=0;collapsible=1;marginBottom=0;strokeColor=#000000;" vertex="1" parent="1">
          <mxGeometry x="330" y="830" width="160" height="34" as="geometry" />
        </mxCell>
        <mxCell id="Fa52Ynr5WljQ3uTiB2kK-47" value="Praktisk info" style="swimlane;fontStyle=1;align=center;verticalAlign=top;childLayout=stackLayout;horizontal=1;startSize=26;horizontalStack=0;resizeParent=1;resizeParentMax=0;resizeLast=0;collapsible=1;marginBottom=0;strokeColor=#000000;" vertex="1" parent="1">
          <mxGeometry x="150" y="830" width="160" height="34" as="geometry" />
        </mxCell>
        <mxCell id="Fa52Ynr5WljQ3uTiB2kK-53" value="Info om p책melding" style="swimlane;fontStyle=1;align=center;verticalAlign=top;childLayout=stackLayout;horizontal=1;startSize=26;horizontalStack=0;resizeParent=1;resizeParentMax=0;resizeLast=0;collapsible=1;marginBottom=0;strokeColor=#000000;" vertex="1" parent="1">
          <mxGeometry x="530" y="830" width="160" height="138" as="geometry" />
        </mxCell>
        <mxCell id="Fa52Ynr5WljQ3uTiB2kK-54" value="Hvordan melde seg p책" style="text;strokeColor=none;fillColor=none;align=left;verticalAlign=top;spacingLeft=4;spacingRight=4;overflow=hidden;rotatable=0;points=[[0,0.5],[1,0.5]];portConstraint=eastwest;" vertex="1" parent="Fa52Ynr5WljQ3uTiB2kK-53">
          <mxGeometry y="26" width="160" height="26" as="geometry" />
        </mxCell>
        <mxCell id="Fa52Ynr5WljQ3uTiB2kK-55" value="" style="line;strokeWidth=1;fillColor=none;align=left;verticalAlign=middle;spacingTop=-1;spacingLeft=3;spacingRight=3;rotatable=0;labelPosition=right;points=[];portConstraint=eastwest;" vertex="1" parent="Fa52Ynr5WljQ3uTiB2kK-53">
          <mxGeometry y="52" width="160" height="8" as="geometry" />
        </mxCell>
        <mxCell id="Fa52Ynr5WljQ3uTiB2kK-56" value="Klasser" style="text;strokeColor=none;fillColor=none;align=left;verticalAlign=top;spacingLeft=4;spacingRight=4;overflow=hidden;rotatable=0;points=[[0,0.5],[1,0.5]];portConstraint=eastwest;" vertex="1" parent="Fa52Ynr5WljQ3uTiB2kK-53">
          <mxGeometry y="60" width="160" height="26" as="geometry" />
        </mxCell>
        <mxCell id="Fa52Ynr5WljQ3uTiB2kK-57" value="Priser" style="text;fillColor=none;align=left;verticalAlign=top;spacingLeft=4;spacingRight=4;overflow=hidden;rotatable=0;points=[[0,0.5],[1,0.5]];portConstraint=eastwest;strokeColor=#000000;" vertex="1" parent="Fa52Ynr5WljQ3uTiB2kK-53">
          <mxGeometry y="86" width="160" height="26" as="geometry" />
        </mxCell>
        <mxCell id="Fa52Ynr5WljQ3uTiB2kK-58" value="Lisens" style="text;strokeColor=none;fillColor=none;align=left;verticalAlign=top;spacingLeft=4;spacingRight=4;overflow=hidden;rotatable=0;points=[[0,0.5],[1,0.5]];portConstraint=eastwest;" vertex="1" parent="Fa52Ynr5WljQ3uTiB2kK-53">
          <mxGeometry y="112" width="160" height="26" as="geometry" />
        </mxCell>
        <mxCell id="Fa52Ynr5WljQ3uTiB2kK-61" style="edgeStyle=orthogonalEdgeStyle;rounded=0;orthogonalLoop=1;jettySize=auto;html=1;entryX=0.5;entryY=0;entryDx=0;entryDy=0;exitX=0.476;exitY=0.964;exitDx=0;exitDy=0;exitPerimeter=0;" edge="1" parent="1" source="Fa52Ynr5WljQ3uTiB2kK-7" target="Fa52Ynr5WljQ3uTiB2kK-12">
          <mxGeometry relative="1" as="geometry">
            <mxPoint x="410" y="530" as="sourcePoint" />
            <Array as="points">
              <mxPoint x="410" y="530" />
            </Array>
          </mxGeometry>
        </mxCell>
        <mxCell id="Fa52Ynr5WljQ3uTiB2kK-62" style="edgeStyle=orthogonalEdgeStyle;rounded=0;orthogonalLoop=1;jettySize=auto;html=1;exitX=0;exitY=0.5;exitDx=0;exitDy=0;entryX=0.5;entryY=0;entryDx=0;entryDy=0;" edge="1" parent="1" source="Fa52Ynr5WljQ3uTiB2kK-7" target="Fa52Ynr5WljQ3uTiB2kK-8">
          <mxGeometry relative="1" as="geometry" />
        </mxCell>
        <mxCell id="Fa52Ynr5WljQ3uTiB2kK-63" style="edgeStyle=orthogonalEdgeStyle;rounded=0;orthogonalLoop=1;jettySize=auto;html=1;exitX=1;exitY=0.5;exitDx=0;exitDy=0;entryX=0.5;entryY=0;entryDx=0;entryDy=0;" edge="1" parent="1" source="Fa52Ynr5WljQ3uTiB2kK-7" target="Fa52Ynr5WljQ3uTiB2kK-16">
          <mxGeometry relative="1" as="geometry" />
        </mxCell>
        <mxCell id="Fa52Ynr5WljQ3uTiB2kK-64" style="edgeStyle=orthogonalEdgeStyle;rounded=0;orthogonalLoop=1;jettySize=auto;html=1;exitX=0;exitY=0.5;exitDx=0;exitDy=0;entryX=0.441;entryY=0.017;entryDx=0;entryDy=0;entryPerimeter=0;" edge="1" parent="1" source="Fa52Ynr5WljQ3uTiB2kK-5" target="Fa52Ynr5WljQ3uTiB2kK-20">
          <mxGeometry relative="1" as="geometry" />
        </mxCell>
        <mxCell id="Fa52Ynr5WljQ3uTiB2kK-65" style="edgeStyle=orthogonalEdgeStyle;rounded=0;orthogonalLoop=1;jettySize=auto;html=1;exitX=1;exitY=0.5;exitDx=0;exitDy=0;entryX=0.5;entryY=0;entryDx=0;entryDy=0;" edge="1" parent="1" source="Fa52Ynr5WljQ3uTiB2kK-5" target="Fa52Ynr5WljQ3uTiB2kK-37">
          <mxGeometry relative="1" as="geometry" />
        </mxCell>
        <mxCell id="Fa52Ynr5WljQ3uTiB2kK-66" style="edgeStyle=orthogonalEdgeStyle;rounded=0;orthogonalLoop=1;jettySize=auto;html=1;exitX=1;exitY=0.5;exitDx=0;exitDy=0;entryX=0.5;entryY=0;entryDx=0;entryDy=0;" edge="1" parent="1" source="Fa52Ynr5WljQ3uTiB2kK-3" target="Fa52Ynr5WljQ3uTiB2kK-36">
          <mxGeometry relative="1" as="geometry" />
        </mxCell>
        <mxCell id="Fa52Ynr5WljQ3uTiB2kK-70" value="Nyhetsartikkel" style="swimlane;fontStyle=1;align=center;verticalAlign=top;childLayout=stackLayout;horizontal=1;startSize=26;horizontalStack=0;resizeParent=1;resizeParentMax=0;resizeLast=0;collapsible=1;marginBottom=0;strokeColor=#000000;" vertex="1" parent="1">
          <mxGeometry x="-80" y="830" width="160" height="34" as="geometry" />
        </mxCell>
        <mxCell id="Fa52Ynr5WljQ3uTiB2kK-71" style="edgeStyle=orthogonalEdgeStyle;rounded=0;orthogonalLoop=1;jettySize=auto;html=1;exitX=0.502;exitY=0.971;exitDx=0;exitDy=0;entryX=0.5;entryY=0;entryDx=0;entryDy=0;exitPerimeter=0;" edge="1" parent="1" source="Fa52Ynr5WljQ3uTiB2kK-21" target="Fa52Ynr5WljQ3uTiB2kK-70">
          <mxGeometry relative="1" as="geometry" />
        </mxCell>
      </root>
    </mxGraphModel>
  </diagram>
</mxfile>
